<?xml version="1.0" encoding="utf-8"?>
<!-- Generator: Adobe Illustrator 22.1.0, SVG Export Plug-In . SVG Version: 6.00 Build 0)  -->
<svg version="1.1" id="Layer_1" xmlns="http://www.w3.org/2000/svg" xmlns:xlink="http://www.w3.org/1999/xlink" x="0px" y="0px"
	 viewBox="0 0 193.2 28.4" style="enable-background:new 0 0 193.2 28.4;" xml:space="preserve">
<style type="text/css">
	.st0{fill:#6C63FF;}
	.st1{fill:url(#SVGID_1_);}
	.st2{opacity:0.5;fill:url(#SVGID_2_);enable-background:new    ;}
</style>
<g>
	<path class="st0" d="M59.8,6.8c-1.2-0.6-2.6-0.9-3.9-0.8c-1.4,0-2.7,0.3-3.9,1c-1.2,0.7-2.2,1.7-2.8,3c-0.7,1.4-1,3-0.9,4.6
		c0,1.5,0.3,3,0.9,4.3c0.6,1.3,1.6,2.3,2.9,3.1c1.3,0.8,2.7,1.2,4.2,1.2c0.1,0,0.2,0,0.3,0c1.3,0,2.7-0.4,3.8-1.1
		c1-0.7,1.8-1.6,2.5-2.6L63,19l-1.6-1.2l-0.2,0.3c-0.5,0.8-1.1,1.4-1.8,2c-0.8,0.5-1.6,0.7-2.6,0.7c-1,0.1-1.9-0.5-2.4-1.3
		c-0.7-1.3-1-2.7-1-4.1h10l0.1-1c0.1-0.5,0.1-1.1,0.1-1.5c0-1.3-0.3-2.6-1-3.7C61.9,8.2,60.9,7.4,59.8,6.8z M58.4,13.2h-5.1
		c0-1.4,0.2-2.7,0.8-4c0.2-0.4,0.5-0.8,1-1c1-0.4,2.1,0,2.6,0.9C58.2,10.5,58.5,11.9,58.4,13.2z"/>
	<path class="st0" d="M84.8,6c-1,0-2,0.1-3,0.5c-0.7,0.3-1.2,0.7-1.8,1.2c-0.5-0.5-1-0.8-1.6-1.1c-0.9-0.4-2-0.7-3-0.6
		c-1.5,0-3,0.5-4.2,1.5c-0.6-0.8-1.6-1.2-3-1.2h-3.6V8l0.7,0c0.6-0.1,1.2,0.2,1.5,0.6c0.3,0.7,0.5,1.6,0.4,2.4l0,11.7h5l0-11.6
		c0-0.5,0-0.9-0.1-1.4l-0.1-0.3c0.3-0.3,0.6-0.5,0.9-0.7c0.4-0.2,0.8-0.4,1.3-0.4c0.6,0,1.3,0.3,1.6,0.9c0.5,1,0.8,2.1,0.7,3.2v10.2
		h5V12.4c0-0.9-0.1-1.7-0.3-2.6c-0.1-0.2-0.1-0.4-0.2-0.6c0.3-0.3,0.6-0.5,0.9-0.7c0.5-0.2,1-0.3,1.5-0.3c0,0,0,0,0,0
		c0.7,0,1.3,0.3,1.6,0.9c0.5,1,0.8,2.1,0.7,3.2v10.2h5V12.4C91,8.1,88.9,6,84.8,6z"/>
	<path class="st0" d="M107.6,18.2c-0.6,0.8-1.2,1.4-2,2c-0.8,0.5-1.6,0.7-2.5,0.7c-2.6,0-3.8-2.1-3.8-6.4c-0.1-1.7,0.2-3.3,1-4.8
		c0.5-0.9,1.5-1.5,2.6-1.5c0,0,0,0,0,0c1.1-0.1,2.1,0.3,2.9,1c0.8,0.8,1.2,1.9,1.3,3l0,0.3h1.7l0-0.3c0-1.1,0-2.1-0.1-3.2
		c-0.1-0.6-0.4-1.2-0.8-1.7C107,6.4,105.2,6,102.4,6c0,0,0,0,0,0c-1.6-0.1-3.2,0.3-4.6,1.1c-1.2,0.7-2.2,1.8-2.9,3.1
		c-0.6,1.3-1,2.8-0.9,4.3c0,1.5,0.3,2.9,0.9,4.3c0.6,1.3,1.6,2.4,2.9,3.1c1.4,0.8,3,1.3,4.6,1.2c0.1,0,0.3,0,0.4,0
		c1.4,0,2.7-0.4,3.9-1.1c1-0.7,1.9-1.6,2.5-2.6l0.2-0.3l-1.6-1.2L107.6,18.2z"/>
	<path class="st0" d="M118.3,5.9c-2.8,0-4.5,0.4-5.3,1.3c-0.4,0.5-0.6,1-0.7,1.6c-0.1,0.7-0.2,1.3-0.2,2l0,0.3h2.5l0-0.3
		c0.1-0.8,0.5-1.6,1.1-2.1c0.6-0.4,1.2-0.6,1.9-0.6c0.8,0,1.6,0.4,2,1c0.5,1.1,0.8,2.4,0.8,3.6h-0.2c-1.9-0.1-3.7,0.1-5.5,0.6
		c-1.1,0.2-2.2,0.9-2.9,1.8c-0.6,0.9-0.9,1.9-0.8,2.9c-0.1,1.4,0.5,2.7,1.6,3.6l0,0c1.2,0.8,2.5,1.3,3.9,1.3c0.1,0,0.3,0,0.4,0
		c1.2,0.1,2.3-0.3,3.3-1c0.3-0.2,0.6-0.5,0.8-0.7l1.1,1.4h3.3v-9.3c0-2.4-0.6-4.3-1.8-5.5C122.2,6.5,120.2,5.8,118.3,5.9z M120.5,15
		v3.8c-0.1,0.3-0.3,0.7-0.6,0.9c-0.3,0.3-0.6,0.5-0.9,0.7l-0.1,0.1c-0.3,0.1-0.6,0.2-0.9,0.2c-0.5,0-1-0.2-1.3-0.6
		c-0.4-0.6-0.6-1.2-0.5-2c-0.1-0.9,0.3-1.8,0.9-2.3c0.8-0.5,1.8-0.8,2.8-0.8c0.1,0,0.3,0,0.4,0H120.5z"/>
	<path class="st0" d="M143.7,8.4c-1.3-1.6-3.4-2.5-5.4-2.4c-1.6,0-3.2,0.5-4.5,1.5c-0.2-0.4-0.6-0.7-1-0.9c-0.6-0.3-1.3-0.4-2-0.3
		h-3.6V8l0.7,0c0.6-0.1,1.2,0.2,1.5,0.6c0.3,0.7,0.5,1.6,0.4,2.4l0,18.1h5v-6.7c0.1,0.1,0.3,0.1,0.4,0.2c0.8,0.3,1.7,0.5,2.6,0.5
		c0,0,0,0,0,0c2.2,0.1,4.3-0.8,5.7-2.5c1.3-1.7,2-3.9,1.9-6.1C145.7,12.3,145.1,10.1,143.7,8.4z M134.8,9.6l-0.1-0.3
		c0.8-0.7,1.8-1.1,2.9-1.1c1,0,1.8,0.6,2.1,1.6c0.6,1.5,0.8,3.1,0.7,4.7v0c0,4.2-1,6.3-3,6.3c-0.7,0-1.3-0.2-1.9-0.5
		c-0.2-0.1-0.4-0.2-0.6-0.4v-9.2C134.9,10.4,134.9,9.9,134.8,9.6z"/>
	<path class="st0" d="M149.8,4.3c0.5,0.5,1.2,0.8,1.9,0.8c0,0,0.1,0,0.1,0c0.6,0,1.1-0.2,1.6-0.6c0.4-0.4,0.6-1,0.6-1.6
		c0-0.8-0.2-1.5-0.7-2.1c-0.5-0.6-1.3-0.9-2.1-0.8c-0.6,0-1.1,0.2-1.6,0.6c-0.4,0.4-0.6,1-0.6,1.6C149.1,3,149.3,3.7,149.8,4.3
		L149.8,4.3z"/>
	<path class="st0" d="M153.1,6.7c-0.6-0.3-1.3-0.5-2-0.4h-4.3V8l0.7,0c0.6-0.1,1.2,0.2,1.5,0.6c0.3,0.7,0.5,1.5,0.4,2.4l0,11.7h5V11
		c0-0.9-0.1-1.8-0.3-2.7C154,7.6,153.6,7.1,153.1,6.7z"/>
	<path class="st0" d="M167.9,19.9c-0.3,0.2-0.5,0.3-0.7,0.4c-0.5,0.3-1.1,0.4-1.7,0.4c-0.4,0-0.8-0.2-1-0.5
		c-0.3-0.7-0.5-1.5-0.4-2.3V8.5h3.6V6.2h-3.6v-5h-3.2l-1.8,2.2v2.8h-2v2.2h2l0,9.2c-0.1,1.4,0.4,2.8,1.4,3.9l0,0
		c1,0.9,2.2,1.4,3.5,1.4c0.1,0,0.2,0,0.2,0c1.2,0,2.4-0.3,3.5-0.8c0.4-0.2,0.7-0.5,1.1-0.8l0.2-0.2l-0.8-1.5L167.9,19.9z"/>
	<path class="st0" d="M177.2,5.9c-2.8,0-4.5,0.4-5.3,1.3c-0.4,0.4-0.7,1-0.8,1.6c-0.1,0.7-0.2,1.4-0.1,2l0,0.3h2.5l0-0.3
		c0.1-0.8,0.5-1.6,1.1-2.1c0.6-0.4,1.2-0.6,2-0.6c0.8,0,1.6,0.4,2,1c0.6,1.1,0.8,2.4,0.8,3.6h-0.2c-1.9-0.1-3.7,0.1-5.5,0.6
		c-1.1,0.2-2.2,0.9-2.9,1.8c-0.6,0.9-0.9,1.9-0.8,2.9c0,1.4,0.6,2.7,1.6,3.6l0,0c1.2,0.8,2.5,1.3,3.9,1.3c0.2,0,0.3,0,0.5,0
		c1.2,0.1,2.3-0.3,3.3-1c0.3-0.2,0.6-0.5,0.8-0.7l1.1,1.4h3.3v-9.3c0-2.4-0.6-4.3-1.9-5.5C181,6.5,179.1,5.8,177.2,5.9z M179.3,15
		v3.8c-0.1,0.3-0.3,0.7-0.6,0.9c-0.3,0.3-0.5,0.5-0.9,0.7l-0.1,0.1c-0.3,0.1-0.6,0.2-0.9,0.2c-0.5,0-1-0.2-1.3-0.6
		c-0.4-0.6-0.6-1.2-0.5-1.9c-0.1-0.9,0.3-1.8,0.9-2.3c0.8-0.5,1.8-0.8,2.8-0.8c0.1,0,0.3,0,0.4,0H179.3z"/>
	<path class="st0" d="M192.9,1.9c-0.1-0.6-0.5-1.2-1.1-1.5c-0.6-0.3-1.3-0.5-2-0.4h-4.3v1.7l0.7,0c0.6-0.1,1.2,0.2,1.5,0.6
		c0.3,0.7,0.5,1.6,0.4,2.4l0,18h5v-18C193.2,3.7,193.1,2.8,192.9,1.9z"/>
</g>
<title>logo-EmCapital 3</title>
<g>
	<path class="st0" d="M11.2,14.4l9.3,9.4c1.5,1.5,3.8,1.5,5.3,0l0.1-0.1L38.7,9.9c0.6-0.6,0.6-1.5,0-2.1l0,0l0,0l-4.3-3.9
		c-0.6-0.6-1.6-0.5-2.1,0.1l0,0l-9.1,9.8l-6.1-5.3L11.2,14.4z"/>
	
		<linearGradient id="SVGID_1_" gradientUnits="userSpaceOnUse" x1="16.0627" y1="-140.8237" x2="11.0828" y2="-180.2058" gradientTransform="matrix(1 0 0 -1 0 -148.2354)">
		<stop  offset="3.288068e-02" style="stop-color:#6C63FF"/>
		<stop  offset="0.295" style="stop-color:#A59FFF"/>
		<stop  offset="0.5504" style="stop-color:#D6D3FF"/>
		<stop  offset="0.7418" style="stop-color:#F4F3FF"/>
		<stop  offset="0.8476" style="stop-color:#FFFFFF"/>
	</linearGradient>
	<path class="st1" d="M0.4,15.5l8.3,8.3c1.5,1.5,3.8,1.5,5.3,0l0.1-0.1L26.9,9.9c0.5-0.6,0.5-1.4,0-2l-3.4-3.8
		c-0.6-0.6-1.5-0.6-2.1,0l0,0h-0.1L11.2,14.4L6.3,9.5c-0.6-0.6-1.5-0.6-2.1,0l-3.8,3.9C-0.1,14-0.1,14.9,0.4,15.5z"/>
	
		<linearGradient id="SVGID_2_" gradientUnits="userSpaceOnUse" x1="18.3637" y1="-167.1263" x2="15.4406" y2="-154.683" gradientTransform="matrix(1 0 0 -1 0 -148.2354)">
		<stop  offset="0" style="stop-color:#6C63FF"/>
		<stop  offset="1" style="stop-color:#6C63FF"/>
	</linearGradient>
	<polygon class="st2" points="23.3,13.9 17.1,8.4 11.2,14.4 17.2,20.4 	"/>
</g>
</svg>
